- 
http://www.Speed.Cd
 
http://www.Speed.Cd       the fast  and The Hottest Private Tracker on the net

Please Seed back to make the speed Faster!!
 ............ NFO .............
-[IMG]http://i.imgur.com/8XmU9oZ.jpg[/IMG]

Source: DVDR  L-S

^^ I included the Bonus FanBoy and ChumChum Episode: I, Fanbot also which was included on the dvd
 
http://www.play.com/DVD/DVD/4-/39015763/-/Product.html

There's a commotion in the ocean when SpongeBob has to give an oral report, Squidward gets hurt on the job, SpongeBob and Patrick play a wild game of miniature golf, and so much more in this collection that's sure to have you going overboard with laughs!

General
Complete name                            : SpongeBob  SquarePants Disorder In The Deep 2013 DVDRip x264 AAC-OFFLiNE.mp4
Format                                   : MPEG-4
Format profile                           : Base Media
Codec ID                                 : isom
File size                                : 1.40 GiB
Duration                                 : 1h 42mn
Overall bit rate mode                    : Variable
Overall bit rate                         : 1 945 Kbps
Encoded date                             : UTC 2013-03-03 16:41:14
Tagged date                              : UTC 2013-03-03 16:41:14

Video
ID                                       : 1
Format                                   : AVC
Format/Info                              : Advanced Video Codec
Format profile                           : High@L4.1
Format settings, CABAC                   : Yes
Format settings, ReFrames                : 3 frames
Codec ID                                 : avc1
Codec ID/Info                            : Advanced Video Coding
Duration                                 : 1h 42mn
Bit rate mode                            : Variable
Bit rate                                 : 1 847 Kbps
Maximum bit rate                         : 40.0 Mbps
Width                                    : 688 pixels
Height                                   : 512 pixels
Display aspect ratio                     : 4:3
Frame rate mode                          : Constant
Frame rate                               : 25.000 fps
Color space                              : YUV
Chroma subsampling                       : 4:2:0
Bit depth                                : 8 bits
Scan type                                : Progressive
Bits/(Pixel*Frame)                       : 0.210
Stream size                              : 1.33 GiB (95%)
Writing library                          : x264 core 130 r2273 b3065e6

Audio
ID                                       : 2
Format                                   : AAC
Format/Info                              : Advanced Audio Codec
Format profile                           : LC
Codec ID                                 : 40
Duration                                 : 1h 42mn
Bit rate mode                            : Variable
Bit rate                                 : 96.0 Kbps
Maximum bit rate                         : 140 Kbps
Channel(s)                               : 2 channels
Channel positions                        : Front: L R
Sampling rate                            : 48.0 KHz
Compression mode                         : Lossy
Stream size                              : 69.2 MiB (5%)
Language                                 : English
Encoded date                             : UTC 2013-03-03 15:01:06
Tagged date                              : UTC 2013-03-03 16:41:58

[IMG]http://i.imgur.com/0zkeKMg.png[/IMG]
[IMG]http://i.imgur.com/3iuojnG.png[/IMG]
[IMG]http://i.imgur.com/3NnZl6J.png[/IMG]
[IMG]http://i.imgur.com/MTgN6jZ.png[/IMG]

Bonus FanBoy and ChumChum Episode: I, Fanbot

File size                                : 100 MiB
Duration                                 : 13mn 45s
Overall bit rate                         : 1 017 Kbps
Width                                    : 688 pixels
Height                                   : 512 pixels
Display aspect ratio                     : 4:3
Frame rate mode                          : Constant
Frame rate                               : 25.000 fps

Bit rate                                 : 105 Kbps
Maximum bit rate                         : 153 Kbps
Channel(s)                               : 2 channels
Channel positions                        : Front: L R
Sampling rate                            : 48.0 KHz

[IMG]http://i.imgur.com/Wgb7SkQ.png[/IMG]
[IMG]http://i.imgur.com/lymmnjT.png[/IMG]

Greets: To Our Friends